<?xml version="1.0" encoding="iso-8859-1"?>
<!-- Uploaded to: SVG Repo, www.svgrepo.com, Generator: SVG Repo Mixer Tools -->
<svg height="800px" width="800px" version="1.1" id="Layer_1" xmlns="http://www.w3.org/2000/svg" xmlns:xlink="http://www.w3.org/1999/xlink" 
	 viewBox="0 0 512 512" xml:space="preserve">
<g>
	<g>
		<path style="fill:#B0B6BB;" d="M456.775,170.762c-2.222,0-4.443-0.85-6.135-2.543l-24.55-24.55c-3.384-3.384-3.384-8.878,0-12.271
			c3.393-3.384,8.886-3.384,12.271,0l24.55,24.55c3.393,3.393,3.393,8.878,0,12.271
			C461.218,169.912,458.997,170.762,456.775,170.762"/>
		<path style="fill:#B0B6BB;" d="M383.14,97.127c-2.222,0-4.443-0.85-6.135-2.543l-24.55-24.55c-3.384-3.384-3.384-8.878,0-12.271
			c3.393-3.384,8.886-3.384,12.271,0l24.55,24.55c3.393,3.393,3.393,8.878,0,12.271C387.583,96.277,385.362,97.127,383.14,97.127"/>
		<path style="fill:#B0B6BB;" d="M358.594,170.762c-2.222,0-4.443-0.85-6.135-2.543c-3.393-3.393-3.393-8.878,0-12.271l24.55-24.55
			c3.384-3.384,8.878-3.384,12.271,0c3.384,3.393,3.384,8.886,0,12.271l-24.55,24.55
			C363.037,169.912,360.815,170.762,358.594,170.762"/>
		<path style="fill:#B0B6BB;" d="M303.729,225.627c-2.222,0-4.443-0.85-6.135-2.543c-3.393-3.393-3.393-8.878,0-12.271
			l24.186-24.185c3.384-3.384,8.878-3.384,12.271,0c3.384,3.393,3.384,8.886,0,12.271l-24.185,24.186
			C308.172,224.777,305.95,225.627,303.729,225.627"/>
		<path style="fill:#B0B6BB;" d="M432.229,97.127c-2.222,0-4.443-0.85-6.135-2.543c-3.393-3.393-3.393-8.878,0-12.271l27.7-27.7
			c3.393-3.393,8.886-3.393,12.271,0c3.393,3.384,3.393,8.878,0,12.271l-27.7,27.7C436.672,96.277,434.45,97.127,432.229,97.127"/>
	</g>
	<path style="fill:#4482C3;" d="M321.085,355.797c0,86.268-69.936,156.203-156.203,156.203S8.678,442.064,8.678,355.797
		s69.936-156.203,156.203-156.203S321.085,269.529,321.085,355.797"/>
	<g>
		<path style="fill:#A4E869;" d="M164.881,199.593c-18.328,0-35.84,3.324-52.181,9.121c-1.345,6.916-4.643,12.453-8.018,17.72
			c-8.773,13.685,5.988,30.937,20.61,23.856c16.401-7.94,29.757-24.706,48.406-24.602c9.52,0.052,33.887-14.996,38.548-11.932
			c18.831,12.41-4.313,56.381-18.718,41.75c-13.85-13.859-22.459,6.005-15.976,12.939c7.125,7.628,4.556,22.997-5.311,26.529
			c-9.928,3.549-48.892-26.346-39.32-3.688c10.526,25.149-31.527,44.57,10.926,34.434c20.011-4.79,13.364,10.431,22.797,17.703
			c11.255,8.635,12.427,7.715,31.111-0.929c21.912-9.997,13.676,5.597,20.393,15.785c12.574,19.031,43.503,37.289,59.713,12.141
			c3.818-5.927,0.373-50.15,25.869-23.3h16.913C316.121,264.912,248.225,199.593,164.881,199.593"/>
		<path style="fill:#A4E869;" d="M190.915,416.542l-26.034-8.678h-26.034l-21.009-8.739l-13.703-8.617l-34.712,8.678l-17.356,8.678
			L34.712,425.22l-6.76,5.719C54.515,479.249,105.863,512,164.881,512c15.074,0,29.601-2.248,43.39-6.239v-19.794l17.356-17.356
			l8.678-26.034h-43.39V416.542z"/>
	</g>
	<g>
		<path style="fill:#E8EDEE;" d="M413.693,69.912l37.072,37.072c3.315,3.315,3.315,8.695,0,12.019l-37.072,37.072
			c-3.315,3.315-8.695,3.315-12.019,0l-37.072-37.072c-3.315-3.324-3.315-8.704,0-12.019l37.072-37.072
			C404.997,66.597,410.378,66.597,413.693,69.912"/>
		<path style="fill:#E8EDEE;" d="M358.594,223.446c16.948-16.948,16.948-44.414,0-61.362s-44.414-16.948-61.362,0L358.594,223.446z"
			/>
	</g>
	<g>
		<polygon style="fill:#F3D55B;" points="377.003,45.495 340.182,8.674 303.37,45.495 340.182,82.316 		"/> 
		<polygon style="fill:#F3D55B;" points="512,180.493 475.179,143.672 438.367,180.493 475.179,217.314 		"/>
		<path style="fill:#F3D55B;" d="M138.847,130.169c0,4.79-3.888,8.678-8.678,8.678s-8.678-3.888-8.678-8.678
			s3.888-8.678,8.678-8.678S138.847,125.379,138.847,130.169"/>
		<path style="fill:#F3D55B;" d="M338.441,503.322c0,4.79-3.888,8.678-8.678,8.678s-8.678-3.888-8.678-8.678
			s3.888-8.678,8.678-8.678S338.441,498.532,338.441,503.322"/>
		<path style="fill:#F3D55B;" d="M512,433.898c0,4.79-3.888,8.678-8.678,8.678s-8.678-3.888-8.678-8.678s3.888-8.678,8.678-8.678
			S512,429.108,512,433.898"/>
	</g>
</g>
</svg>
